# xmcd
#
# Track frame offsets:
#	150
#	18730
#	39002
#	53977
#	80520
#	101517
#	122775
#	146005
#
# Disc length: 2272 seconds
#
# Revision: 1
# Processed by: cddbd v1.5.1PL0 Copyright (c) Steve Scherf et al.
# Submitted via: audiograbber 1.83.01
#
DISCID=6508de08
DTITLE=jack housen - two lane road
DYEAR=1900
DGENRE=
TTITLE0=Why Do You Do This To Me
TTITLE1=Yeso Yeso
TTITLE2=The Cover
TTITLE3=RaGe
TTITLE4=Climbing The wall
TTITLE5=Read My Mind
TTITLE6=Learn You're Farther Away
TTITLE7=Two Lane Road
EXTD=
EXTT0=
EXTT1=
EXTT2=
EXTT3=
EXTT4=
EXTT5=
EXTT6=
EXTT7=
PLAYORDER=
